<svg xmlns="http://www.w3.org/2000/svg" viewBox="0 0 24 24" class="design-iconfont"><defs><linearGradient x1="88.694%" y1="76.488%" x2="0%" y2="18.866%" id="a"><stop stop-color="#353535" offset="0%"/><stop stop-color="#353535" stop-opacity="0" offset="100%"/></linearGradient><linearGradient x1="20.371%" y1="23.331%" x2="100%" y2="79.411%" id="b"><stop stop-color="#353535" offset="0%"/><stop stop-color="#353535" stop-opacity="0" offset="100%"/></linearGradient></defs><g fill="none"><path d="M5.373 4.51A9.962 9.962 0 0112 2c5.523 0 10 4.477 10 10a9.954 9.954 0 01-1.793 5.715L17.5 12H20A8 8 0 006.274 6.413l-.9-1.902-.001-.001z" fill="url(#a)"/><path d="M18.627 19.49A9.962 9.962 0 0112 22C6.477 22 2 17.523 2 12c0-2.125.663-4.095 1.793-5.715L6.5 12H4a8 8 0 0013.726 5.587l.9 1.902.001.001z" fill="url(#b)"/></g></svg>