<svg xmlns="http://www.w3.org/2000/svg" viewBox="0 0 24 24" class="design-iconfont"><g fill="none" fill-rule="evenodd"><path d="M5.623 15.767l1.607 1.606C5.225 17.9 4 18.696 4 19.31c0 .587.968 1.244 2.528 1.737l.42.124c.506.141 1.063.265 1.662.365l.523.08c.788.11 1.638.178 2.528.192l.339.335.336-.337.167-.001c.83-.02 1.624-.086 2.364-.189l.523-.08c.599-.1 1.156-.224 1.661-.365l.42-.124C19.032 20.554 20 19.897 20 19.31c0-.61-1.222-1.41-3.23-1.936l1.607-1.606C20.6 16.547 22 17.763 22 19.309c0 2.005-2.412 3.483-5.851 4.133l-.551.096A23.08 23.08 0 0112 23.81a23.08 23.08 0 01-3.598-.27l-.551-.097C4.412 22.792 2 21.314 2 19.31c0-1.545 1.4-2.763 3.623-3.542zm3.307-.758l.19 1.425-1.254-1.254c.248-.047.502-.09.762-.128l.302-.043zm6.27.018c.32.045.631.096.934.153l-1.111 1.11.178-1.263z" fill="#353535" fill-rule="nonzero"/><path d="M17.657 2.343a8 8 0 01.2 11.107l-.2.207L12 19.314l-5.657-5.657A8 8 0 0117.657 2.343zM12 4a4 4 0 100 8 4 4 0 000-8zm0 2a2 2 0 110 4 2 2 0 010-4z" fill="#353535" fill-rule="nonzero"/><path d="M3 19.31c0 1.932 4.03 3.5 9 3.5s9-1.568 9-3.5" stroke="#353535" stroke-width="2"/></g></svg>