<?xml version="1.0" standalone="no"?><!DOCTYPE svg PUBLIC "-//W3C//DTD SVG 1.1//EN" "http://www.w3.org/Graphics/SVG/1.1/DTD/svg11.dtd"><svg t="1641199230559" class="icon" viewBox="0 0 1065 1024" version="1.1" xmlns="http://www.w3.org/2000/svg" p-id="4167" width="49.921875" height="48" xmlns:xlink="http://www.w3.org/1999/xlink"><defs><style type="text/css"></style></defs><path d="M758.329806 1.172645L530.580645 112.986839 301.625806 1.180903c-98.865548 0-179.034839 80.045419-179.034838 178.910968L530.580645 247.163871l406.767484-67.088516c0-98.865548-80.152774-178.910968-179.018323-178.910968z" fill="#353185" p-id="4168"></path><path d="M301.617548 1.172645h456.704v223.636645H301.617548z" fill="#FFB367" p-id="4169"></path><path d="M830.753032 879.483871h143.459097v139.214452h-143.459097zM85.735226 879.483871H229.16129v139.214452h-143.44258zM47.905032 213.627871A45.898323 45.898323 0 0 0 2.064516 259.468387v136.15071a45.898323 45.898323 0 0 0 45.840516 45.848774h8.208516a16.763871 16.763871 0 0 0 16.772129-16.780387V247.180387h139.776v-33.544258H47.91329zM1013.248 213.627871A45.898323 45.898323 0 0 1 1059.096774 259.468387v136.15071a45.898323 45.898323 0 0 1-45.848774 45.848774h-8.200258a16.763871 16.763871 0 0 1-16.772129-16.780387V247.180387h-139.784258v-33.544258h164.756645z" fill="#0E0A57" p-id="4170"></path><path d="M122.590968 180.075355h814.757161v482.394839H122.590968z" fill="#FFD117" p-id="4171"></path><path d="M63.364129 654.63329v247.221678h200.712258l44.725678-306.465033h-186.219355a59.235097 59.235097 0 0 0-59.210323 59.243355zM937.348129 595.389935h-186.219355l44.725678 306.456775h200.728774V654.63329a59.235097 59.235097 0 0 0-59.243355-59.235096z" fill="#FFD117" p-id="4172"></path><path d="M795.854452 901.854968H264.076387V595.389935c0-59.292903 48.061935-107.346581 107.346581-107.34658h317.084903c59.284645 0 107.346581 48.061935 107.346581 107.34658v306.456775z" fill="#FFB367" p-id="4173"></path><path d="M675.063742 107.404387H386.105806a16.763871 16.763871 0 1 1 0-33.544258h288.966194a16.763871 16.763871 0 1 1 0 33.544258z" fill="#0E0A57" p-id="4174"></path><path d="M712.613161 612.170323H348.548129a16.763871 16.763871 0 1 1 0-33.552517h364.065032a16.763871 16.763871 0 1 1 0 33.544259zM712.613161 679.250581H348.548129a16.763871 16.763871 0 1 1 0-33.544258h364.065032a16.763871 16.763871 0 1 1 0 33.544258zM712.613161 746.339097H348.548129a16.763871 16.763871 0 1 1 0-33.536h364.065032a16.763871 16.763871 0 1 1 0 33.536z" fill="#FF7039" p-id="4175"></path><path d="M156.135226 213.619613h357.070451v207.326968H156.135226z" fill="#FFFFFF" p-id="4176"></path><path d="M546.741677 213.619613h357.045678v207.326968H546.741677z" fill="#FFF0B2" p-id="4177"></path><path d="M161.758968 729.55871m-39.134968 0a39.134968 39.134968 0 1 0 78.269935 0 39.134968 39.134968 0 1 0-78.269935 0Z" fill="#FF7039" p-id="4178"></path><path d="M898.180129 729.55871m-39.134968 0a39.134968 39.134968 0 1 0 78.269936 0 39.134968 39.134968 0 1 0-78.269936 0Z" fill="#FF7039" p-id="4179"></path></svg>