<svg xmlns="http://www.w3.org/2000/svg" xmlns:xlink="http://www.w3.org/1999/xlink" viewBox="0 0 196 196" class="design-iconfont"><defs><path id="a" d="M98 0a98 98 0 100 196A98 98 0 1098 0z"/><path id="c" d="M98 46a29 29 0 100 58 29 29 0 100-58z"/></defs><g fill="none" fill-rule="evenodd"><mask id="b" fill="#fff"><use xlink:href="#a"/></mask><use fill="#F4F4F4" xlink:href="#a"/><g mask="url(#b)"><path d="M62.044 166.956l108.577-34.883a2 2 0 001.11-2.922l-40.653-68.73L24.5 106.194l37.544 60.762z" fill="#8D8D8D"/><path d="M25.598 102.096l33.775-19.5 37 64.086-33.775 19.5a3 3 0 01-4.098-1.098l-34-58.89a3 3 0 011.098-4.098z" stroke="#8D8D8D" fill="#FFF" stroke-linejoin="bevel"/><path d="M134.674 58.452L98.782 74.854l37 64.086 35.372-16.165a3 3 0 001.351-4.228L138.52 59.68a3 3 0 00-3.845-1.229z" stroke="#8D8D8D" fill="#FFF"/><path stroke="#8D8D8D" fill="#FFF" stroke-linejoin="bevel" d="M98.782 74.854l-39.409 7.742 37 64.086 39.409-7.742z"/></g><path stroke="#353535" stroke-width="4" mask="url(#b)" d="M79 94l-50.205 50.205"/><g mask="url(#b)"><path d="M.68 110.82l44.42.75c9.223.256 16.206 3.146 20.948 8.67 7.114 8.285 2.392 12.562 1.027 13.232-1.364.67-3.316 1.052-4.75.67 0 0 4.042 5.222 1.89 9.206-2.154 3.983-3.42 3.983-6.775 4.696 0 0 1.614 5.387-3.95 9.824-5.562 4.436-17.924 1.064-21.431-1.497-2.339-1.708-3.508-4.162-3.508-7.365l-5 2.842c-8.903 3.306-15.736 3.834-20.497 1.583-4.761-2.25-10.412-8.68-16.951-19.289L.68 110.82z" fill="#E0E0E0"/><path d="M57.33 129.996c5.744 3.767 8.192 7.676 7.344 11.726-.848 4.05-3.296 6.158-7.344 6.322" stroke="#8D8D8D"/><path d="M52.574 140.63c4.325 5.142 5.767 9.444 4.325 12.906-2.162 5.192-8.475 8.104-16.054 6.266-7.579-1.839-9.657-3.906-11.041-5.536-.923-1.087-1.336-2.819-1.24-5.196" stroke="#8D8D8D"/><path d="M39.643 149.67c-2.961-1.992-5.934-2.534-8.918-1.626-4.476 1.362-6.93 5.387-13.809 5.387-4.585 0-9.206-1.129-13.862-3.386" stroke="#8D8D8D"/></g><mask id="d" fill="#fff"><use xlink:href="#c"/></mask><path stroke="#353535" d="M98 45.5a29.5 29.5 0 100 59 29.5 29.5 0 100-59z"/><path fill="#E0E0E0" mask="url(#d)" d="M76.957 95L84 89l15.5 3.756 14.24-6.17 12.452 3.914 37.627 25.639L81 120.102z"/><path d="M86.686 60.686c6.249-6.248 16.38-6.248 22.628 0 6.112 6.113 6.245 15.94.398 22.215l-.398.413L98 94.627 86.686 83.314c-6.248-6.249-6.248-16.38 0-22.628z" fill="#78A9FF" fill-rule="nonzero" mask="url(#d)"/><path d="M98 64a8 8 0 110 16 8 8 0 010-16zm0 2a6 6 0 100 12 6 6 0 000-12z" fill="#FFF" fill-rule="nonzero" mask="url(#d)"/></g></svg>